<svg width="14" height="16" viewBox="0 0 14 16" fill="none" xmlns="http://www.w3.org/2000/svg">
<path d="M6.52064 15.0615L6.52079 15.0616C6.60967 15.1501 6.73005 15.2 6.85574 15.2C6.98142 15.2 7.10181 15.1501 7.19069 15.0616L7.19083 15.0615L8.54229 13.7126L8.54236 13.7126C8.72754 13.5276 8.72764 13.2276 8.54229 13.0427L8.54222 13.0426C8.35714 12.858 8.05735 12.858 7.87227 13.0426L7.8722 13.0427L6.85574 14.0571L3.24199 10.4504C1.24975 8.46209 1.24975 5.22651 3.24199 3.23816C5.23444 1.2496 8.47703 1.2496 10.4695 3.23816C12.4617 5.22651 12.4617 8.46209 10.4695 10.4504L9.35615 11.5616C9.17084 11.7465 9.17084 12.0465 9.35615 12.2315C9.54124 12.4162 9.84114 12.4162 10.0262 12.2315L11.1396 11.1203C13.5021 8.7624 13.5021 4.9261 11.1396 2.56828C8.77725 0.210573 4.93422 0.210573 2.5719 2.56828C0.209368 4.9262 0.209363 8.76251 2.5719 11.1203L6.52064 15.0615Z" fill="#1B2634" stroke="white" stroke-width="0.4"/>
<path d="M9.32588 12.9303C9.41448 12.842 9.46497 12.7205 9.46497 12.5954C9.46497 12.4702 9.4144 12.3487 9.32573 12.2604L9.1846 12.4021L9.32603 12.2607C9.23756 12.1722 9.11605 12.1219 8.99089 12.1219C8.86592 12.1219 8.74431 12.1722 8.65583 12.2606C8.56744 12.3489 8.51692 12.4702 8.51692 12.5954C8.51692 12.7205 8.56744 12.842 8.6559 12.9303C8.74452 13.0189 8.86615 13.0689 8.99089 13.0689C9.11578 13.0689 9.23729 13.0189 9.32588 12.9303ZM9.32588 12.9303C9.32593 12.9303 9.32598 12.9302 9.32603 12.9302L9.1846 12.7888L9.32573 12.9305C9.32578 12.9304 9.32583 12.9304 9.32588 12.9303Z" fill="#1B2634" stroke="white" stroke-width="0.4"/>
<path d="M6.62855 9.39467L6.72439 9.21916L6.62889 9.39485C6.60135 9.37988 6.04831 9.07654 5.48641 8.61317L6.62855 9.39467ZM6.62855 9.39467C6.69951 9.43341 6.77784 9.45257 6.85572 9.45257M6.62855 9.39467L6.85572 9.45257M6.85572 9.45257C6.93347 9.45257 7.01168 9.43348 7.08254 9.39485L6.85572 9.45257ZM5.95728 5.81424C5.54546 5.81424 5.19452 6.16809 5.19452 6.62222C5.19452 6.76628 5.25225 6.93159 5.36714 7.11362C5.48119 7.29429 5.64305 7.47793 5.82973 7.65458C6.16334 7.97025 6.55958 8.2481 6.85571 8.43069C7.15181 8.2481 7.54805 7.97025 7.88166 7.65457C8.06835 7.47792 8.23023 7.29429 8.34428 7.11361C8.45918 6.93158 8.51691 6.76628 8.51691 6.62222C8.51691 6.16809 8.16598 5.81424 7.75416 5.81424C7.54674 5.81424 7.35275 5.89999 7.206 6.06056C7.20595 6.06061 7.20591 6.06066 7.20586 6.06071L7.0582 5.92581L5.95728 5.81424ZM5.95728 5.81424C6.16476 5.81424 6.3588 5.90004 6.50557 6.06071L5.95728 5.81424ZM4.24647 6.62222C4.24647 7.29423 4.69807 7.96324 5.48639 8.61315H8.22504C9.01338 7.96333 9.46496 7.29422 9.46496 6.62222C9.46496 5.65975 8.70304 4.86726 7.75416 4.86726C7.43458 4.86726 7.12323 4.96018 6.85572 5.12922C6.58821 4.96018 6.27685 4.86726 5.95728 4.86726C5.00839 4.86726 4.24647 5.65975 4.24647 6.62222Z" fill="#1B2634" stroke="white" stroke-width="0.4"/>
<path d="M6.28963 2.61686L6.28966 2.61686C7.19629 2.49665 8.13335 2.67288 8.92955 3.11409C9.15841 3.24086 9.24127 3.52923 9.11402 3.75806L9.114 3.7581C8.98671 3.98685 8.69835 4.06876 8.46974 3.94222L8.46964 3.94217C7.17976 3.22728 5.54778 3.45634 4.50315 4.49903L4.50314 4.49904C3.20633 5.79332 3.20632 7.89968 4.50313 9.19397C5.1318 9.82131 5.96668 10.1665 6.85576 10.1665C7.74495 10.1665 8.57982 9.82131 9.20837 9.19398C10.2561 8.14833 10.4835 6.51692 9.76186 5.22823L6.28963 2.61686ZM6.28963 2.61686C5.35286 2.7412 4.50277 3.16075 3.83305 3.82916C2.16594 5.49302 2.16594 8.2 3.83305 9.86386C4.64028 10.6695 5.71434 11.1135 6.85576 11.1135C7.99718 11.1135 9.07123 10.6695 9.87846 9.86386C10.5496 9.19401 10.9705 8.34353 11.0941 7.40607L11.0941 7.40605M6.28963 2.61686L11.0941 7.40605M9.94446 4.58366L9.94451 4.58364C10.1726 4.45654 10.4613 4.53746 10.5892 4.76594L9.94446 4.58366ZM9.94446 4.58366C9.71586 4.71114 9.63387 4.99973 9.76184 5.22819L9.94446 4.58366ZM11.0941 7.40605C11.2136 6.49846 11.0347 5.56142 10.5892 4.76597L11.0941 7.40605Z" fill="#1B2634" stroke="white" stroke-width="0.4"/>
<path d="M9.20693 3.8305L9.20686 3.83057L9.35038 4.35826L9.2091 4.49982L9.20966 4.50039L9.21688 4.50759C9.30951 4.60061 9.43163 4.64724 9.55308 4.64724C9.67316 4.64724 9.79422 4.60163 9.88668 4.50997C10.0727 4.32586 10.0739 4.02578 9.88938 3.84012L9.88939 3.84012L9.88882 3.83955L9.87758 3.82833L9.87758 3.82833L9.87701 3.82777C9.69129 3.64389 9.39128 3.64503 9.20693 3.8305Z" fill="#1B2634" stroke="white" stroke-width="0.4"/>
</svg>
